<mxfile host="app.diagrams.net" modified="2023-12-04T11:10:56.157Z" agent="Mozilla/5.0 (Windows NT 10.0; Win64; x64) AppleWebKit/537.36 (KHTML, like Gecko) Chrome/119.0.0.0 Safari/537.36" etag="bpIxCAsgMA2xZcFsR5Wr" version="22.1.5" type="device" pages="2">
  <diagram name="Sequence" id="13e1069c-82ec-6db2-03f1-153e76fe0fe0">
    <mxGraphModel dx="743" dy="393" grid="1" gridSize="10" guides="1" tooltips="1" connect="1" arrows="1" fold="1" page="1" pageScale="1" pageWidth="827" pageHeight="1169" background="none" math="0" shadow="0">
      <root>
        <mxCell id="0" />
        <mxCell id="1" parent="0" />
        <mxCell id="7baba1c4bc27f4b0-2" value="Серверное приложение" style="shape=umlLifeline;perimeter=lifelinePerimeter;whiteSpace=wrap;html=1;container=1;collapsible=0;recursiveResize=0;outlineConnect=0;rounded=0;shadow=0;comic=0;labelBackgroundColor=none;strokeWidth=1;fontFamily=Times New Roman;fontSize=12;align=center;" parent="1" vertex="1">
          <mxGeometry x="340" y="80" width="140" height="330" as="geometry" />
        </mxCell>
        <mxCell id="7baba1c4bc27f4b0-10" value="" style="html=1;points=[];perimeter=orthogonalPerimeter;rounded=0;shadow=0;comic=0;labelBackgroundColor=none;strokeWidth=1;fontFamily=Times New Roman;fontSize=12;align=center;" parent="7baba1c4bc27f4b0-2" vertex="1">
          <mxGeometry x="65" y="80" width="10" height="230" as="geometry" />
        </mxCell>
        <mxCell id="sNx3uJ4LR307MQ_X6CfO-2" value="2: Открытие формы" style="html=1;verticalAlign=bottom;startArrow=oval;startFill=1;endArrow=block;startSize=8;rounded=0;fontFamily=Times New Roman;fontSize=12;fillColor=#;labelBackgroundColor=none;" parent="7baba1c4bc27f4b0-2" edge="1">
          <mxGeometry x="-0.0588" width="60" relative="1" as="geometry">
            <mxPoint x="-40" y="80" as="sourcePoint" />
            <mxPoint x="65" y="80" as="targetPoint" />
            <mxPoint as="offset" />
          </mxGeometry>
        </mxCell>
        <mxCell id="D4s8hoVn9zRNCf0o13zH-1" value="" style="endArrow=open;html=1;rounded=0;labelBackgroundColor=none;fontFamily=Times New Roman;fontSize=12;fillColor=#;dashed=1;exitX=-0.092;exitY=0.596;exitDx=0;exitDy=0;exitPerimeter=0;endFill=0;" parent="7baba1c4bc27f4b0-2" target="7baba1c4bc27f4b0-9" edge="1">
          <mxGeometry width="50" height="50" relative="1" as="geometry">
            <mxPoint x="344" y="310" as="sourcePoint" />
            <mxPoint x="-175" y="310" as="targetPoint" />
          </mxGeometry>
        </mxCell>
        <mxCell id="D4s8hoVn9zRNCf0o13zH-2" value="1.1.4" style="edgeLabel;html=1;align=center;verticalAlign=middle;resizable=0;points=[];fontSize=12;fontFamily=Times New Roman;labelBackgroundColor=none;" parent="D4s8hoVn9zRNCf0o13zH-1" vertex="1" connectable="0">
          <mxGeometry x="-0.2846" relative="1" as="geometry">
            <mxPoint x="40" y="-10" as="offset" />
          </mxGeometry>
        </mxCell>
        <mxCell id="7baba1c4bc27f4b0-3" value="БД MongoDB" style="shape=umlLifeline;perimeter=lifelinePerimeter;whiteSpace=wrap;html=1;container=1;collapsible=0;recursiveResize=0;outlineConnect=0;rounded=0;shadow=0;comic=0;labelBackgroundColor=none;strokeWidth=1;fontFamily=Times New Roman;fontSize=12;align=center;" parent="1" vertex="1">
          <mxGeometry x="630" y="80" width="100" height="340" as="geometry" />
        </mxCell>
        <mxCell id="sNx3uJ4LR307MQ_X6CfO-5" value="" style="html=1;points=[];perimeter=orthogonalPerimeter;rounded=0;shadow=0;comic=0;labelBackgroundColor=none;strokeWidth=1;fontFamily=Times New Roman;fontSize=12;align=center;" parent="7baba1c4bc27f4b0-3" vertex="1">
          <mxGeometry x="45" y="140" width="10" height="30" as="geometry" />
        </mxCell>
        <mxCell id="sNx3uJ4LR307MQ_X6CfO-13" value="" style="html=1;points=[];perimeter=orthogonalPerimeter;rounded=0;shadow=0;comic=0;labelBackgroundColor=none;strokeWidth=1;fontFamily=Times New Roman;fontSize=12;align=center;" parent="7baba1c4bc27f4b0-3" vertex="1">
          <mxGeometry x="45" y="290" width="10" height="30" as="geometry" />
        </mxCell>
        <mxCell id="7baba1c4bc27f4b0-8" value="Клиент" style="shape=umlLifeline;perimeter=lifelinePerimeter;whiteSpace=wrap;html=1;container=1;collapsible=0;recursiveResize=0;outlineConnect=0;rounded=0;shadow=0;comic=0;labelBackgroundColor=none;strokeWidth=1;fontFamily=Times New Roman;fontSize=12;align=center;" parent="1" vertex="1">
          <mxGeometry x="100" y="80" width="100" height="330" as="geometry" />
        </mxCell>
        <mxCell id="7baba1c4bc27f4b0-9" value="" style="html=1;points=[];perimeter=orthogonalPerimeter;rounded=0;shadow=0;comic=0;labelBackgroundColor=none;strokeWidth=1;fontFamily=Times New Roman;fontSize=12;align=center;" parent="7baba1c4bc27f4b0-8" vertex="1">
          <mxGeometry x="45" y="80" width="10" height="240" as="geometry" />
        </mxCell>
        <mxCell id="sNx3uJ4LR307MQ_X6CfO-1" value="1: Открытие приложения" style="html=1;verticalAlign=bottom;startArrow=oval;startFill=1;endArrow=block;startSize=8;rounded=0;fontFamily=Times New Roman;fontSize=12;fillColor=#;labelBackgroundColor=none;" parent="7baba1c4bc27f4b0-8" edge="1">
          <mxGeometry x="-0.0588" width="60" relative="1" as="geometry">
            <mxPoint x="-60" y="80" as="sourcePoint" />
            <mxPoint x="45" y="80" as="targetPoint" />
            <mxPoint as="offset" />
          </mxGeometry>
        </mxCell>
        <mxCell id="sNx3uJ4LR307MQ_X6CfO-10" value="1.2: Отобразить на экране" style="html=1;verticalAlign=bottom;endArrow=block;rounded=0;labelBackgroundColor=none;fontFamily=Times New Roman;fontSize=12;fillColor=#;exitX=1.005;exitY=0.091;exitDx=0;exitDy=0;exitPerimeter=0;edgeStyle=orthogonalEdgeStyle;" parent="7baba1c4bc27f4b0-8" edge="1">
          <mxGeometry x="0.1" y="90" width="80" relative="1" as="geometry">
            <mxPoint x="54.99999999999994" y="189.99999999999994" as="sourcePoint" />
            <mxPoint x="55" y="220" as="targetPoint" />
            <Array as="points">
              <mxPoint x="90" y="190" />
              <mxPoint x="90" y="220" />
            </Array>
            <mxPoint as="offset" />
          </mxGeometry>
        </mxCell>
        <mxCell id="sNx3uJ4LR307MQ_X6CfO-11" value="1.3: Завершение добавления" style="html=1;verticalAlign=bottom;endArrow=block;rounded=0;labelBackgroundColor=none;fontFamily=Times New Roman;fontSize=12;fillColor=#;exitX=1.005;exitY=0.091;exitDx=0;exitDy=0;exitPerimeter=0;edgeStyle=orthogonalEdgeStyle;" parent="7baba1c4bc27f4b0-8" edge="1">
          <mxGeometry x="0.0536" y="80" width="80" relative="1" as="geometry">
            <mxPoint x="55" y="250" as="sourcePoint" />
            <mxPoint x="55" y="280" as="targetPoint" />
            <Array as="points">
              <mxPoint x="90" y="250" />
              <mxPoint x="90" y="280" />
            </Array>
            <mxPoint as="offset" />
          </mxGeometry>
        </mxCell>
        <mxCell id="sNx3uJ4LR307MQ_X6CfO-3" value="1.1: Соединение" style="html=1;verticalAlign=bottom;endArrow=block;rounded=0;labelBackgroundColor=none;fontFamily=Times New Roman;fontSize=12;fillColor=#;entryX=-0.137;entryY=0.088;entryDx=0;entryDy=0;entryPerimeter=0;exitX=1.005;exitY=0.086;exitDx=0;exitDy=0;exitPerimeter=0;" parent="1" source="7baba1c4bc27f4b0-9" target="7baba1c4bc27f4b0-10" edge="1">
          <mxGeometry width="80" relative="1" as="geometry">
            <mxPoint x="160" y="180" as="sourcePoint" />
            <mxPoint x="360" y="181" as="targetPoint" />
          </mxGeometry>
        </mxCell>
        <mxCell id="sNx3uJ4LR307MQ_X6CfO-7" value="1.1.1:&amp;nbsp; Данные привычки" style="html=1;verticalAlign=bottom;endArrow=block;rounded=0;labelBackgroundColor=none;fontFamily=Times New Roman;fontSize=12;fillColor=#;entryX=-0.022;entryY=-0.003;entryDx=0;entryDy=0;entryPerimeter=0;exitX=0.985;exitY=0.26;exitDx=0;exitDy=0;exitPerimeter=0;" parent="1" source="7baba1c4bc27f4b0-10" target="sNx3uJ4LR307MQ_X6CfO-5" edge="1">
          <mxGeometry width="80" relative="1" as="geometry">
            <mxPoint x="380" y="220" as="sourcePoint" />
            <mxPoint x="639.0600000000002" y="220.21" as="targetPoint" />
          </mxGeometry>
        </mxCell>
        <mxCell id="sNx3uJ4LR307MQ_X6CfO-8" value="" style="endArrow=open;html=1;rounded=0;labelBackgroundColor=none;fontFamily=Times New Roman;fontSize=12;fillColor=#;dashed=1;exitX=-0.092;exitY=0.596;exitDx=0;exitDy=0;exitPerimeter=0;endFill=0;" parent="1" edge="1">
          <mxGeometry width="50" height="50" relative="1" as="geometry">
            <mxPoint x="675.0799999999999" y="237.88" as="sourcePoint" />
            <mxPoint x="150.5" y="237.88" as="targetPoint" />
          </mxGeometry>
        </mxCell>
        <mxCell id="sNx3uJ4LR307MQ_X6CfO-9" value="1.1.3" style="edgeLabel;html=1;align=center;verticalAlign=middle;resizable=0;points=[];fontSize=12;fontFamily=Times New Roman;labelBackgroundColor=none;" parent="sNx3uJ4LR307MQ_X6CfO-8" vertex="1" connectable="0">
          <mxGeometry x="-0.2846" relative="1" as="geometry">
            <mxPoint x="53" y="-10" as="offset" />
          </mxGeometry>
        </mxCell>
        <mxCell id="sNx3uJ4LR307MQ_X6CfO-12" value="&lt;font style=&quot;font-size: 11px&quot;&gt;1.1.2: Измененить данные о привычках юзера&lt;/font&gt;" style="html=1;verticalAlign=bottom;endArrow=block;rounded=0;labelBackgroundColor=none;fontFamily=Times New Roman;fontSize=12;fillColor=#;exitX=1.057;exitY=0.911;exitDx=0;exitDy=0;exitPerimeter=0;entryX=-0.07;entryY=0.006;entryDx=0;entryDy=0;entryPerimeter=0;" parent="1" source="7baba1c4bc27f4b0-10" target="sNx3uJ4LR307MQ_X6CfO-13" edge="1">
          <mxGeometry x="0.0192" y="10" width="80" relative="1" as="geometry">
            <mxPoint x="379.99999999999994" y="369.59999999999997" as="sourcePoint" />
            <mxPoint x="670" y="370" as="targetPoint" />
            <mxPoint as="offset" />
          </mxGeometry>
        </mxCell>
        <mxCell id="eQXIpOKwC6oQGXp79cY4-2" value="" style="ellipse;html=1;shape=endState;fillColor=#000000;strokeColor=none;" parent="1" vertex="1">
          <mxGeometry x="230" y="470" width="30" height="30" as="geometry" />
        </mxCell>
        <mxCell id="eQXIpOKwC6oQGXp79cY4-4" value="&lt;p style=&quot;margin:0px;margin-top:4px;text-align:center;text-decoration:underline;&quot;&gt;&lt;b&gt;Добавление привычки&lt;/b&gt;&lt;/p&gt;&lt;hr&gt;&lt;p style=&quot;margin:0px;margin-left:8px;&quot;&gt;&amp;nbsp; &amp;nbsp; do / открыть форму&lt;/p&gt;" style="verticalAlign=top;align=left;overflow=fill;fontSize=12;fontFamily=Helvetica;html=1;whiteSpace=wrap;rounded=1;" parent="1" vertex="1">
          <mxGeometry x="165" y="540" width="160" height="60" as="geometry" />
        </mxCell>
        <mxCell id="eQXIpOKwC6oQGXp79cY4-5" value="" style="endArrow=open;endFill=1;endSize=12;html=1;rounded=0;exitX=0.5;exitY=1;exitDx=0;exitDy=0;entryX=0.5;entryY=0;entryDx=0;entryDy=0;" parent="1" source="eQXIpOKwC6oQGXp79cY4-2" target="eQXIpOKwC6oQGXp79cY4-4" edge="1">
          <mxGeometry width="160" relative="1" as="geometry">
            <mxPoint x="150" y="650" as="sourcePoint" />
            <mxPoint x="310" y="650" as="targetPoint" />
          </mxGeometry>
        </mxCell>
        <mxCell id="eQXIpOKwC6oQGXp79cY4-30" value="" style="edgeStyle=orthogonalEdgeStyle;rounded=0;orthogonalLoop=1;jettySize=auto;html=1;" parent="1" source="eQXIpOKwC6oQGXp79cY4-6" target="eQXIpOKwC6oQGXp79cY4-10" edge="1">
          <mxGeometry relative="1" as="geometry" />
        </mxCell>
        <mxCell id="eQXIpOKwC6oQGXp79cY4-6" value="&lt;p style=&quot;margin:0px;margin-top:4px;text-align:center;text-decoration:underline;&quot;&gt;&lt;b&gt;Настройка уведомлений&lt;/b&gt;&lt;/p&gt;&lt;hr&gt;&lt;p style=&quot;margin:0px;margin-left:8px;&quot;&gt;&amp;nbsp; &amp;nbsp;do / обработка данных&lt;/p&gt;" style="verticalAlign=top;align=left;overflow=fill;fontSize=12;fontFamily=Helvetica;html=1;whiteSpace=wrap;rounded=1;" parent="1" vertex="1">
          <mxGeometry x="165" y="670" width="160" height="60" as="geometry" />
        </mxCell>
        <mxCell id="eQXIpOKwC6oQGXp79cY4-8" value="" style="endArrow=open;endFill=1;endSize=12;html=1;rounded=0;exitX=0.5;exitY=1;exitDx=0;exitDy=0;entryX=0.5;entryY=0;entryDx=0;entryDy=0;" parent="1" source="eQXIpOKwC6oQGXp79cY4-4" target="eQXIpOKwC6oQGXp79cY4-6" edge="1">
          <mxGeometry width="160" relative="1" as="geometry">
            <mxPoint x="255" y="510" as="sourcePoint" />
            <mxPoint x="255" y="550" as="targetPoint" />
          </mxGeometry>
        </mxCell>
        <mxCell id="eQXIpOKwC6oQGXp79cY4-9" value="Форма открылась" style="text;strokeColor=none;fillColor=none;align=left;verticalAlign=top;spacingLeft=4;spacingRight=4;overflow=hidden;rotatable=0;points=[[0,0.5],[1,0.5]];portConstraint=eastwest;whiteSpace=wrap;html=1;" parent="1" vertex="1">
          <mxGeometry x="280" y="610" width="100" height="40" as="geometry" />
        </mxCell>
        <mxCell id="eQXIpOKwC6oQGXp79cY4-10" value="Добавить уведомелние" style="rhombus;whiteSpace=wrap;html=1;" parent="1" vertex="1">
          <mxGeometry x="180" y="800" width="130" height="50" as="geometry" />
        </mxCell>
        <mxCell id="eQXIpOKwC6oQGXp79cY4-11" value="" style="endArrow=open;endFill=1;endSize=12;html=1;rounded=0;exitX=0.5;exitY=1;exitDx=0;exitDy=0;entryX=0.5;entryY=0;entryDx=0;entryDy=0;" parent="1" edge="1">
          <mxGeometry width="160" relative="1" as="geometry">
            <mxPoint x="244.52" y="730" as="sourcePoint" />
            <mxPoint x="244.52" y="800" as="targetPoint" />
          </mxGeometry>
        </mxCell>
        <mxCell id="eQXIpOKwC6oQGXp79cY4-12" value="&lt;br&gt;&amp;nbsp; &amp;nbsp;&lt;span style=&quot;white-space: pre;&quot;&gt;&#x9;&lt;/span&gt;&amp;nbsp; &amp;nbsp; &amp;nbsp;Добавлено &lt;br&gt;&lt;span style=&quot;white-space: pre;&quot;&gt;&#x9;&lt;/span&gt;&amp;nbsp; &amp;nbsp;уведомление" style="verticalAlign=top;align=left;overflow=fill;fontSize=12;fontFamily=Helvetica;html=1;whiteSpace=wrap;rounded=1;" parent="1" vertex="1">
          <mxGeometry x="70" y="890" width="160" height="60" as="geometry" />
        </mxCell>
        <mxCell id="eQXIpOKwC6oQGXp79cY4-14" value="" style="endArrow=open;endFill=1;endSize=12;html=1;rounded=0;exitX=0;exitY=0.5;exitDx=0;exitDy=0;entryX=0.5;entryY=0;entryDx=0;entryDy=0;" parent="1" source="eQXIpOKwC6oQGXp79cY4-10" target="eQXIpOKwC6oQGXp79cY4-12" edge="1">
          <mxGeometry width="160" relative="1" as="geometry">
            <mxPoint x="149.44" y="810" as="sourcePoint" />
            <mxPoint x="149.44" y="880" as="targetPoint" />
            <Array as="points">
              <mxPoint x="150" y="825" />
            </Array>
          </mxGeometry>
        </mxCell>
        <mxCell id="eQXIpOKwC6oQGXp79cY4-15" value="" style="endArrow=open;endFill=1;endSize=12;html=1;rounded=0;exitX=1;exitY=0.5;exitDx=0;exitDy=0;" parent="1" source="eQXIpOKwC6oQGXp79cY4-10" edge="1">
          <mxGeometry width="160" relative="1" as="geometry">
            <mxPoint x="310" y="830" as="sourcePoint" />
            <mxPoint x="350.0000000000001" y="890" as="targetPoint" />
            <Array as="points">
              <mxPoint x="350" y="825" />
            </Array>
          </mxGeometry>
        </mxCell>
        <mxCell id="eQXIpOKwC6oQGXp79cY4-17" value="&amp;nbsp;&lt;br&gt;&amp;nbsp; &amp;nbsp; &amp;nbsp; &amp;nbsp; &amp;nbsp; &amp;nbsp;Уведомление &lt;br&gt;&amp;nbsp; &amp;nbsp; &amp;nbsp; &amp;nbsp; &amp;nbsp; &amp;nbsp;не&amp;nbsp; добавлено" style="verticalAlign=top;align=left;overflow=fill;fontSize=12;fontFamily=Helvetica;html=1;whiteSpace=wrap;rounded=1;" parent="1" vertex="1">
          <mxGeometry x="270" y="890" width="160" height="60" as="geometry" />
        </mxCell>
        <mxCell id="eQXIpOKwC6oQGXp79cY4-18" value="&lt;p style=&quot;margin:0px;margin-top:4px;text-align:center;text-decoration:underline;&quot;&gt;&lt;b&gt;Заполнение полей&lt;/b&gt;&lt;/p&gt;&lt;hr&gt;&lt;p style=&quot;margin:0px;margin-left:8px;&quot;&gt;&amp;nbsp; &amp;nbsp;do / обработка данных&lt;/p&gt;" style="verticalAlign=top;align=left;overflow=fill;fontSize=12;fontFamily=Helvetica;html=1;whiteSpace=wrap;rounded=1;" parent="1" vertex="1">
          <mxGeometry x="165" y="1030" width="160" height="60" as="geometry" />
        </mxCell>
        <mxCell id="eQXIpOKwC6oQGXp79cY4-19" value="" style="endArrow=open;endFill=1;endSize=12;html=1;rounded=0;exitX=0.5;exitY=1;exitDx=0;exitDy=0;entryX=0.5;entryY=0;entryDx=0;entryDy=0;" parent="1" source="eQXIpOKwC6oQGXp79cY4-17" target="eQXIpOKwC6oQGXp79cY4-18" edge="1">
          <mxGeometry width="160" relative="1" as="geometry">
            <mxPoint x="215" y="835" as="sourcePoint" />
            <mxPoint x="160" y="900" as="targetPoint" />
            <Array as="points">
              <mxPoint x="350" y="980" />
              <mxPoint x="245" y="980" />
            </Array>
          </mxGeometry>
        </mxCell>
        <mxCell id="eQXIpOKwC6oQGXp79cY4-20" value="" style="endArrow=open;endFill=1;endSize=12;html=1;rounded=0;exitX=0.5;exitY=1;exitDx=0;exitDy=0;entryX=0.5;entryY=0;entryDx=0;entryDy=0;" parent="1" source="eQXIpOKwC6oQGXp79cY4-12" target="eQXIpOKwC6oQGXp79cY4-18" edge="1">
          <mxGeometry width="160" relative="1" as="geometry">
            <mxPoint x="360" y="960" as="sourcePoint" />
            <mxPoint x="255" y="1040" as="targetPoint" />
            <Array as="points">
              <mxPoint x="150" y="980" />
              <mxPoint x="245" y="980" />
            </Array>
          </mxGeometry>
        </mxCell>
        <mxCell id="eQXIpOKwC6oQGXp79cY4-21" value="Проверка на валидность" style="rhombus;whiteSpace=wrap;html=1;" parent="1" vertex="1">
          <mxGeometry x="180" y="1140" width="130" height="50" as="geometry" />
        </mxCell>
        <mxCell id="eQXIpOKwC6oQGXp79cY4-22" value="&lt;br&gt;&amp;nbsp; &amp;nbsp; &amp;nbsp; &amp;nbsp; &amp;nbsp;Поля заполнены &lt;br&gt;&amp;nbsp; &amp;nbsp; &amp;nbsp;валидными данными&amp;nbsp;" style="verticalAlign=top;align=left;overflow=fill;fontSize=12;fontFamily=Helvetica;html=1;whiteSpace=wrap;rounded=1;" parent="1" vertex="1">
          <mxGeometry x="70" y="1230" width="160" height="60" as="geometry" />
        </mxCell>
        <mxCell id="eQXIpOKwC6oQGXp79cY4-23" value="" style="endArrow=open;endFill=1;endSize=12;html=1;rounded=0;exitX=0;exitY=0.5;exitDx=0;exitDy=0;entryX=0.5;entryY=0;entryDx=0;entryDy=0;" parent="1" source="eQXIpOKwC6oQGXp79cY4-21" target="eQXIpOKwC6oQGXp79cY4-22" edge="1">
          <mxGeometry width="160" relative="1" as="geometry">
            <mxPoint x="149.44" y="1150" as="sourcePoint" />
            <mxPoint x="149.44" y="1220" as="targetPoint" />
            <Array as="points">
              <mxPoint x="150" y="1165" />
            </Array>
          </mxGeometry>
        </mxCell>
        <mxCell id="eQXIpOKwC6oQGXp79cY4-24" value="" style="endArrow=open;endFill=1;endSize=12;html=1;rounded=0;exitX=1;exitY=0.5;exitDx=0;exitDy=0;" parent="1" source="eQXIpOKwC6oQGXp79cY4-21" edge="1">
          <mxGeometry width="160" relative="1" as="geometry">
            <mxPoint x="310" y="1170" as="sourcePoint" />
            <mxPoint x="350.0000000000001" y="1230" as="targetPoint" />
            <Array as="points">
              <mxPoint x="350" y="1165" />
            </Array>
          </mxGeometry>
        </mxCell>
        <mxCell id="eQXIpOKwC6oQGXp79cY4-25" value="&lt;br&gt;&amp;nbsp; &amp;nbsp; &amp;nbsp; &amp;nbsp; &amp;nbsp;Поля заполнены &lt;br&gt;&amp;nbsp; &amp;nbsp; &amp;nbsp;не валидными данными&amp;nbsp;" style="verticalAlign=top;align=left;overflow=fill;fontSize=12;fontFamily=Helvetica;html=1;whiteSpace=wrap;rounded=1;" parent="1" vertex="1">
          <mxGeometry x="270" y="1230" width="160" height="60" as="geometry" />
        </mxCell>
        <mxCell id="eQXIpOKwC6oQGXp79cY4-26" value="&lt;p style=&quot;margin:0px;margin-top:4px;text-align:center;text-decoration:underline;&quot;&gt;&lt;b&gt;Завершение добавления&lt;/b&gt;&lt;/p&gt;&lt;hr&gt;&lt;p style=&quot;margin:0px;margin-left:8px;&quot;&gt;&amp;nbsp; &amp;nbsp;do / изменение данных пользователя&amp;nbsp;&lt;/p&gt;&lt;p style=&quot;margin:0px;margin-left:8px;&quot;&gt;&amp;nbsp;exit / Выход из экрана добавления привычки&lt;/p&gt;&lt;p style=&quot;margin:0px;margin-left:8px;&quot;&gt;&lt;br&gt;&lt;/p&gt;" style="verticalAlign=top;align=left;overflow=fill;fontSize=12;fontFamily=Helvetica;html=1;whiteSpace=wrap;rounded=1;" parent="1" vertex="1">
          <mxGeometry x="165" y="1370" width="160" height="90" as="geometry" />
        </mxCell>
        <mxCell id="eQXIpOKwC6oQGXp79cY4-27" value="" style="endArrow=open;endFill=1;endSize=12;html=1;rounded=0;exitX=0.5;exitY=1;exitDx=0;exitDy=0;entryX=0.5;entryY=0;entryDx=0;entryDy=0;" parent="1" source="eQXIpOKwC6oQGXp79cY4-25" target="eQXIpOKwC6oQGXp79cY4-26" edge="1">
          <mxGeometry width="160" relative="1" as="geometry">
            <mxPoint x="215" y="1175" as="sourcePoint" />
            <mxPoint x="160" y="1240" as="targetPoint" />
            <Array as="points">
              <mxPoint x="350" y="1320" />
              <mxPoint x="245" y="1320" />
            </Array>
          </mxGeometry>
        </mxCell>
        <mxCell id="eQXIpOKwC6oQGXp79cY4-28" value="" style="endArrow=open;endFill=1;endSize=12;html=1;rounded=0;exitX=0.5;exitY=1;exitDx=0;exitDy=0;entryX=0.5;entryY=0;entryDx=0;entryDy=0;" parent="1" source="eQXIpOKwC6oQGXp79cY4-22" target="eQXIpOKwC6oQGXp79cY4-26" edge="1">
          <mxGeometry width="160" relative="1" as="geometry">
            <mxPoint x="360" y="1300" as="sourcePoint" />
            <mxPoint x="255" y="1380" as="targetPoint" />
            <Array as="points">
              <mxPoint x="150" y="1320" />
              <mxPoint x="245" y="1320" />
            </Array>
          </mxGeometry>
        </mxCell>
        <mxCell id="eQXIpOKwC6oQGXp79cY4-31" value="" style="endArrow=open;endFill=1;endSize=12;html=1;rounded=0;exitX=0.5;exitY=1;exitDx=0;exitDy=0;entryX=0.5;entryY=0;entryDx=0;entryDy=0;" parent="1" target="eQXIpOKwC6oQGXp79cY4-21" edge="1">
          <mxGeometry width="160" relative="1" as="geometry">
            <mxPoint x="244.44" y="1090" as="sourcePoint" />
            <mxPoint x="240" y="1130" as="targetPoint" />
          </mxGeometry>
        </mxCell>
        <mxCell id="eQXIpOKwC6oQGXp79cY4-32" value="" style="ellipse;html=1;shape=endState;fillColor=#000000;strokeColor=default;" parent="1" vertex="1">
          <mxGeometry x="230" y="1510" width="30" height="30" as="geometry" />
        </mxCell>
        <mxCell id="eQXIpOKwC6oQGXp79cY4-34" value="" style="endArrow=open;endFill=1;endSize=12;html=1;rounded=0;exitX=0.5;exitY=1;exitDx=0;exitDy=0;entryX=0.5;entryY=0;entryDx=0;entryDy=0;" parent="1" source="eQXIpOKwC6oQGXp79cY4-26" target="eQXIpOKwC6oQGXp79cY4-32" edge="1">
          <mxGeometry width="160" relative="1" as="geometry">
            <mxPoint x="254.44" y="1100" as="sourcePoint" />
            <mxPoint x="360" y="1500" as="targetPoint" />
          </mxGeometry>
        </mxCell>
        <mxCell id="D4s8hoVn9zRNCf0o13zH-3" value="да" style="text;html=1;strokeColor=none;fillColor=none;align=center;verticalAlign=middle;whiteSpace=wrap;rounded=0;" parent="1" vertex="1">
          <mxGeometry x="90" y="840" width="60" height="30" as="geometry" />
        </mxCell>
        <mxCell id="D4s8hoVn9zRNCf0o13zH-4" value="нет" style="text;html=1;strokeColor=none;fillColor=none;align=center;verticalAlign=middle;whiteSpace=wrap;rounded=0;" parent="1" vertex="1">
          <mxGeometry x="360" y="840" width="60" height="30" as="geometry" />
        </mxCell>
        <mxCell id="D4s8hoVn9zRNCf0o13zH-5" value="да" style="text;html=1;strokeColor=none;fillColor=none;align=center;verticalAlign=middle;whiteSpace=wrap;rounded=0;" parent="1" vertex="1">
          <mxGeometry x="100" y="1169" width="60" height="30" as="geometry" />
        </mxCell>
        <mxCell id="D4s8hoVn9zRNCf0o13zH-6" value="нет" style="text;html=1;strokeColor=none;fillColor=none;align=center;verticalAlign=middle;whiteSpace=wrap;rounded=0;" parent="1" vertex="1">
          <mxGeometry x="354" y="1169" width="60" height="30" as="geometry" />
        </mxCell>
      </root>
    </mxGraphModel>
  </diagram>
  <diagram id="Dp6IWCwBupV4HajSLFYf" name="State">
    <mxGraphModel dx="1187" dy="739" grid="1" gridSize="10" guides="1" tooltips="1" connect="1" arrows="1" fold="1" page="1" pageScale="1" pageWidth="827" pageHeight="1169" math="0" shadow="0">
      <root>
        <mxCell id="VO8wrccKKKVSHIQP9nz9-0" />
        <mxCell id="VO8wrccKKKVSHIQP9nz9-1" parent="VO8wrccKKKVSHIQP9nz9-0" />
        <mxCell id="1QHzfwnCVmD1By3LjXi_-0" value="" style="ellipse;fillColor=#000000;strokeColor=none;rounded=0;labelBackgroundColor=none;fontFamily=Times New Roman;fontSize=12;" vertex="1" parent="VO8wrccKKKVSHIQP9nz9-1">
          <mxGeometry x="355.12" y="30" width="30" height="30" as="geometry" />
        </mxCell>
        <mxCell id="1QHzfwnCVmD1By3LjXi_-1" value="" style="ellipse;html=1;shape=endState;fillColor=#000000;strokeColor=#000000;rounded=0;labelBackgroundColor=none;fontFamily=Times New Roman;fontSize=12;" vertex="1" parent="VO8wrccKKKVSHIQP9nz9-1">
          <mxGeometry x="355.12" y="990" width="30" height="30" as="geometry" />
        </mxCell>
        <mxCell id="1QHzfwnCVmD1By3LjXi_-9" value="Начало" style="text;html=1;strokeColor=none;fillColor=none;align=center;verticalAlign=middle;whiteSpace=wrap;rounded=0;labelBackgroundColor=none;fontFamily=Times New Roman;fontSize=12;" vertex="1" parent="VO8wrccKKKVSHIQP9nz9-1">
          <mxGeometry x="375.12" y="70" width="40" height="15" as="geometry" />
        </mxCell>
        <mxCell id="1QHzfwnCVmD1By3LjXi_-10" value="Конец" style="text;html=1;strokeColor=none;fillColor=none;align=center;verticalAlign=middle;whiteSpace=wrap;rounded=0;labelBackgroundColor=none;fontFamily=Times New Roman;fontSize=12;" vertex="1" parent="VO8wrccKKKVSHIQP9nz9-1">
          <mxGeometry x="375.12" y="960" width="40" height="10" as="geometry" />
        </mxCell>
        <mxCell id="1QHzfwnCVmD1By3LjXi_-11" value="" style="endArrow=open;endFill=1;endSize=12;html=1;rounded=0;labelBackgroundColor=none;fontFamily=Times New Roman;fontSize=12;strokeWidth=1;fillColor=#;exitX=0.5;exitY=1;exitDx=0;exitDy=0;" edge="1" parent="VO8wrccKKKVSHIQP9nz9-1" source="1QHzfwnCVmD1By3LjXi_-0">
          <mxGeometry width="160" relative="1" as="geometry">
            <mxPoint x="435.12" y="147.5" as="sourcePoint" />
            <mxPoint x="370.12" y="110" as="targetPoint" />
          </mxGeometry>
        </mxCell>
        <mxCell id="1QHzfwnCVmD1By3LjXi_-12" value="" style="endArrow=open;endFill=1;endSize=12;html=1;rounded=0;labelBackgroundColor=none;fontFamily=Times New Roman;fontSize=12;strokeWidth=1;fillColor=#;exitX=0.5;exitY=1;exitDx=0;exitDy=0;entryX=0.5;entryY=0;entryDx=0;entryDy=0;" edge="1" parent="VO8wrccKKKVSHIQP9nz9-1" target="1QHzfwnCVmD1By3LjXi_-1">
          <mxGeometry width="160" relative="1" as="geometry">
            <mxPoint x="369.94999999999993" y="930" as="sourcePoint" />
            <mxPoint x="369.94999999999993" y="980" as="targetPoint" />
          </mxGeometry>
        </mxCell>
        <mxCell id="1QHzfwnCVmD1By3LjXi_-22" value="" style="rounded=1;whiteSpace=wrap;html=1;labelBackgroundColor=none;fontFamily=Times New Roman;fontSize=12;fillColor=none;" vertex="1" parent="VO8wrccKKKVSHIQP9nz9-1">
          <mxGeometry x="310.12" y="110" width="120" height="60" as="geometry" />
        </mxCell>
        <mxCell id="1QHzfwnCVmD1By3LjXi_-23" value="" style="endArrow=none;html=1;rounded=0;labelBackgroundColor=none;fontFamily=Times New Roman;fontSize=12;strokeWidth=1;fillColor=#;entryX=1;entryY=0.5;entryDx=0;entryDy=0;exitX=0;exitY=0.5;exitDx=0;exitDy=0;spacing=2;" edge="1" parent="VO8wrccKKKVSHIQP9nz9-1" source="1QHzfwnCVmD1By3LjXi_-22" target="1QHzfwnCVmD1By3LjXi_-22">
          <mxGeometry width="50" height="50" relative="1" as="geometry">
            <mxPoint x="340.12" y="180" as="sourcePoint" />
            <mxPoint x="390.12" y="130" as="targetPoint" />
          </mxGeometry>
        </mxCell>
        <mxCell id="1QHzfwnCVmD1By3LjXi_-24" value="Тест начался" style="text;html=1;strokeColor=none;fillColor=none;align=center;verticalAlign=middle;whiteSpace=wrap;rounded=0;labelBackgroundColor=none;fontFamily=Times New Roman;fontSize=12;" vertex="1" parent="VO8wrccKKKVSHIQP9nz9-1">
          <mxGeometry x="335.12" y="110" width="70" height="15" as="geometry" />
        </mxCell>
        <mxCell id="1QHzfwnCVmD1By3LjXi_-25" value="do / Включить таймер" style="text;html=1;strokeColor=none;fillColor=none;align=center;verticalAlign=middle;whiteSpace=wrap;rounded=0;labelBackgroundColor=none;fontFamily=Times New Roman;fontSize=12;" vertex="1" parent="VO8wrccKKKVSHIQP9nz9-1">
          <mxGeometry x="310.12" y="145" width="120" height="15" as="geometry" />
        </mxCell>
        <mxCell id="1QHzfwnCVmD1By3LjXi_-26" value="" style="endArrow=open;endFill=1;endSize=12;html=1;rounded=0;labelBackgroundColor=none;fontFamily=Times New Roman;fontSize=12;strokeWidth=1;fillColor=#;exitX=0.5;exitY=1;exitDx=0;exitDy=0;entryX=0.5;entryY=0;entryDx=0;entryDy=0;" edge="1" parent="VO8wrccKKKVSHIQP9nz9-1" source="1QHzfwnCVmD1By3LjXi_-22" target="1QHzfwnCVmD1By3LjXi_-37">
          <mxGeometry width="160" relative="1" as="geometry">
            <mxPoint x="369.95" y="180" as="sourcePoint" />
            <mxPoint x="370.12" y="210" as="targetPoint" />
          </mxGeometry>
        </mxCell>
        <mxCell id="1QHzfwnCVmD1By3LjXi_-27" value="Таймер теста сработал" style="text;html=1;strokeColor=none;fillColor=none;align=center;verticalAlign=middle;whiteSpace=wrap;rounded=0;labelBackgroundColor=none;fontFamily=Times New Roman;fontSize=12;" vertex="1" parent="VO8wrccKKKVSHIQP9nz9-1">
          <mxGeometry x="375.12" y="180" width="110" height="30" as="geometry" />
        </mxCell>
        <mxCell id="1QHzfwnCVmD1By3LjXi_-28" value="" style="rounded=1;whiteSpace=wrap;html=1;labelBackgroundColor=none;fontFamily=Times New Roman;fontSize=12;fillColor=none;" vertex="1" parent="VO8wrccKKKVSHIQP9nz9-1">
          <mxGeometry x="200" y="380" width="120" height="40" as="geometry" />
        </mxCell>
        <mxCell id="1QHzfwnCVmD1By3LjXi_-30" value="Дан правильный ответ" style="text;html=1;strokeColor=none;fillColor=none;align=center;verticalAlign=middle;whiteSpace=wrap;rounded=0;labelBackgroundColor=none;fontFamily=Times New Roman;fontSize=12;" vertex="1" parent="VO8wrccKKKVSHIQP9nz9-1">
          <mxGeometry x="208.69" y="380" width="102.62" height="30" as="geometry" />
        </mxCell>
        <mxCell id="1QHzfwnCVmD1By3LjXi_-32" value="" style="rhombus;whiteSpace=wrap;html=1;rounded=0;labelBackgroundColor=none;fontFamily=Times New Roman;fontSize=12;fillColor=none;" vertex="1" parent="VO8wrccKKKVSHIQP9nz9-1">
          <mxGeometry x="340.12" y="310" width="60" height="40" as="geometry" />
        </mxCell>
        <mxCell id="1QHzfwnCVmD1By3LjXi_-33" value="" style="rounded=1;whiteSpace=wrap;html=1;labelBackgroundColor=none;fontFamily=Times New Roman;fontSize=12;fillColor=none;" vertex="1" parent="VO8wrccKKKVSHIQP9nz9-1">
          <mxGeometry x="420.25" y="380" width="120" height="40" as="geometry" />
        </mxCell>
        <mxCell id="1QHzfwnCVmD1By3LjXi_-34" value="Дан неправильный ответ" style="text;html=1;strokeColor=none;fillColor=none;align=center;verticalAlign=middle;whiteSpace=wrap;rounded=0;labelBackgroundColor=none;fontFamily=Times New Roman;fontSize=12;" vertex="1" parent="VO8wrccKKKVSHIQP9nz9-1">
          <mxGeometry x="425.25" y="380" width="108.5" height="30" as="geometry" />
        </mxCell>
        <mxCell id="1QHzfwnCVmD1By3LjXi_-35" value="" style="endArrow=open;endFill=1;endSize=12;html=1;rounded=0;labelBackgroundColor=none;fontFamily=Times New Roman;fontSize=12;strokeWidth=1;fillColor=#;exitX=0;exitY=0.5;exitDx=0;exitDy=0;entryX=0.5;entryY=0;entryDx=0;entryDy=0;" edge="1" parent="VO8wrccKKKVSHIQP9nz9-1" source="1QHzfwnCVmD1By3LjXi_-32" target="1QHzfwnCVmD1By3LjXi_-30">
          <mxGeometry width="160" relative="1" as="geometry">
            <mxPoint x="240" y="305" as="sourcePoint" />
            <mxPoint x="239.8299999999998" y="365" as="targetPoint" />
            <Array as="points">
              <mxPoint x="260" y="330" />
            </Array>
          </mxGeometry>
        </mxCell>
        <mxCell id="1QHzfwnCVmD1By3LjXi_-36" value="" style="endArrow=open;endFill=1;endSize=12;html=1;rounded=0;labelBackgroundColor=none;fontFamily=Times New Roman;fontSize=12;strokeWidth=1;fillColor=#;exitX=1;exitY=0.5;exitDx=0;exitDy=0;entryX=0.5;entryY=0;entryDx=0;entryDy=0;" edge="1" parent="VO8wrccKKKVSHIQP9nz9-1" source="1QHzfwnCVmD1By3LjXi_-32">
          <mxGeometry width="160" relative="1" as="geometry">
            <mxPoint x="585" y="320" as="sourcePoint" />
            <mxPoint x="483.25" y="380" as="targetPoint" />
            <Array as="points">
              <mxPoint x="483" y="330" />
            </Array>
          </mxGeometry>
        </mxCell>
        <mxCell id="1QHzfwnCVmD1By3LjXi_-37" value="" style="rounded=1;whiteSpace=wrap;html=1;labelBackgroundColor=none;fontFamily=Times New Roman;fontSize=12;fillColor=none;" vertex="1" parent="VO8wrccKKKVSHIQP9nz9-1">
          <mxGeometry x="300.12" y="225" width="140" height="60" as="geometry" />
        </mxCell>
        <mxCell id="1QHzfwnCVmD1By3LjXi_-38" value="" style="endArrow=none;html=1;rounded=0;labelBackgroundColor=none;fontFamily=Times New Roman;fontSize=12;strokeWidth=1;fillColor=#;entryX=1;entryY=0.5;entryDx=0;entryDy=0;exitX=0;exitY=0.5;exitDx=0;exitDy=0;spacing=2;" edge="1" parent="VO8wrccKKKVSHIQP9nz9-1" source="1QHzfwnCVmD1By3LjXi_-37" target="1QHzfwnCVmD1By3LjXi_-37">
          <mxGeometry width="50" height="50" relative="1" as="geometry">
            <mxPoint x="340.12" y="295" as="sourcePoint" />
            <mxPoint x="390.12" y="245" as="targetPoint" />
          </mxGeometry>
        </mxCell>
        <mxCell id="1QHzfwnCVmD1By3LjXi_-39" value="Вывод вопросов теста" style="text;html=1;strokeColor=none;fillColor=none;align=center;verticalAlign=middle;whiteSpace=wrap;rounded=0;labelBackgroundColor=none;fontFamily=Times New Roman;fontSize=12;" vertex="1" parent="VO8wrccKKKVSHIQP9nz9-1">
          <mxGeometry x="302.5" y="225" width="137.62" height="25" as="geometry" />
        </mxCell>
        <mxCell id="1QHzfwnCVmD1By3LjXi_-40" value="do / Обработка вопроса" style="text;html=1;strokeColor=none;fillColor=none;align=center;verticalAlign=middle;whiteSpace=wrap;rounded=0;labelBackgroundColor=none;fontFamily=Times New Roman;fontSize=12;" vertex="1" parent="VO8wrccKKKVSHIQP9nz9-1">
          <mxGeometry x="310.12" y="260" width="120" height="15" as="geometry" />
        </mxCell>
        <mxCell id="1QHzfwnCVmD1By3LjXi_-41" value="" style="endArrow=open;endFill=1;endSize=12;html=1;rounded=0;labelBackgroundColor=none;fontFamily=Times New Roman;fontSize=12;strokeWidth=1;fillColor=#;exitX=0.5;exitY=1;exitDx=0;exitDy=0;entryX=0.5;entryY=0;entryDx=0;entryDy=0;" edge="1" parent="VO8wrccKKKVSHIQP9nz9-1" source="1QHzfwnCVmD1By3LjXi_-37" target="1QHzfwnCVmD1By3LjXi_-32">
          <mxGeometry width="160" relative="1" as="geometry">
            <mxPoint x="485.12" y="267.5" as="sourcePoint" />
            <mxPoint x="485.12" y="322.5" as="targetPoint" />
          </mxGeometry>
        </mxCell>
        <mxCell id="1QHzfwnCVmD1By3LjXi_-42" value="" style="rounded=1;whiteSpace=wrap;html=1;labelBackgroundColor=none;fontFamily=Times New Roman;fontSize=12;fillColor=none;" vertex="1" parent="VO8wrccKKKVSHIQP9nz9-1">
          <mxGeometry x="300.12" y="480" width="140" height="70" as="geometry" />
        </mxCell>
        <mxCell id="1QHzfwnCVmD1By3LjXi_-43" value="" style="endArrow=none;html=1;rounded=0;labelBackgroundColor=none;fontFamily=Times New Roman;fontSize=12;strokeWidth=1;fillColor=#;entryX=1;entryY=0.5;entryDx=0;entryDy=0;exitX=0;exitY=0.5;exitDx=0;exitDy=0;spacing=2;" edge="1" parent="VO8wrccKKKVSHIQP9nz9-1" source="1QHzfwnCVmD1By3LjXi_-42" target="1QHzfwnCVmD1By3LjXi_-42">
          <mxGeometry width="50" height="50" relative="1" as="geometry">
            <mxPoint x="340.12" y="550" as="sourcePoint" />
            <mxPoint x="390.12" y="500" as="targetPoint" />
          </mxGeometry>
        </mxCell>
        <mxCell id="1QHzfwnCVmD1By3LjXi_-44" value="Ожидание окончания теста" style="text;html=1;strokeColor=none;fillColor=none;align=center;verticalAlign=middle;whiteSpace=wrap;rounded=0;labelBackgroundColor=none;fontFamily=Times New Roman;fontSize=12;" vertex="1" parent="VO8wrccKKKVSHIQP9nz9-1">
          <mxGeometry x="302.5" y="490" width="137.62" height="20" as="geometry" />
        </mxCell>
        <mxCell id="1QHzfwnCVmD1By3LjXi_-45" value="do / Ждать" style="text;html=1;strokeColor=none;fillColor=none;align=center;verticalAlign=middle;whiteSpace=wrap;rounded=0;labelBackgroundColor=none;fontFamily=Times New Roman;fontSize=12;" vertex="1" parent="VO8wrccKKKVSHIQP9nz9-1">
          <mxGeometry x="310.12" y="515" width="120" height="15" as="geometry" />
        </mxCell>
        <mxCell id="1QHzfwnCVmD1By3LjXi_-46" value="" style="endArrow=open;endFill=1;endSize=12;html=1;rounded=0;labelBackgroundColor=none;fontFamily=Times New Roman;fontSize=12;strokeWidth=1;fillColor=#;exitX=0.5;exitY=1;exitDx=0;exitDy=0;entryX=0.5;entryY=0;entryDx=0;entryDy=0;" edge="1" parent="VO8wrccKKKVSHIQP9nz9-1" source="1QHzfwnCVmD1By3LjXi_-28" target="1QHzfwnCVmD1By3LjXi_-42">
          <mxGeometry width="160" relative="1" as="geometry">
            <mxPoint x="260.12" y="430" as="sourcePoint" />
            <mxPoint x="370.12" y="460" as="targetPoint" />
            <Array as="points">
              <mxPoint x="260.12" y="430" />
              <mxPoint x="320.12" y="430" />
              <mxPoint x="370.12" y="430" />
            </Array>
          </mxGeometry>
        </mxCell>
        <mxCell id="1QHzfwnCVmD1By3LjXi_-48" value="" style="endArrow=none;html=1;rounded=0;labelBackgroundColor=none;fontFamily=Times New Roman;fontSize=12;strokeWidth=1;fillColor=#;entryX=0.5;entryY=1;entryDx=0;entryDy=0;" edge="1" parent="VO8wrccKKKVSHIQP9nz9-1" target="1QHzfwnCVmD1By3LjXi_-33">
          <mxGeometry width="50" height="50" relative="1" as="geometry">
            <mxPoint x="370.12" y="430" as="sourcePoint" />
            <mxPoint x="530.12" y="430" as="targetPoint" />
            <Array as="points">
              <mxPoint x="480.12" y="430" />
            </Array>
          </mxGeometry>
        </mxCell>
        <mxCell id="1QHzfwnCVmD1By3LjXi_-51" value="" style="endArrow=none;endFill=0;endSize=12;html=1;rounded=0;labelBackgroundColor=none;fontFamily=Times New Roman;fontSize=12;strokeWidth=1;fillColor=#;exitX=0;exitY=0.5;exitDx=0;exitDy=0;" edge="1" parent="VO8wrccKKKVSHIQP9nz9-1" source="1QHzfwnCVmD1By3LjXi_-37">
          <mxGeometry width="160" relative="1" as="geometry">
            <mxPoint x="173.4999999999999" y="275" as="sourcePoint" />
            <mxPoint x="370" y="600" as="targetPoint" />
            <Array as="points">
              <mxPoint x="160" y="255" />
              <mxPoint x="160" y="600" />
            </Array>
          </mxGeometry>
        </mxCell>
        <mxCell id="1QHzfwnCVmD1By3LjXi_-52" value="" style="endArrow=open;endFill=0;endSize=12;html=1;rounded=0;labelBackgroundColor=none;fontFamily=Times New Roman;fontSize=12;strokeWidth=1;fillColor=#;exitX=0.5;exitY=1;exitDx=0;exitDy=0;entryX=0.5;entryY=0;entryDx=0;entryDy=0;" edge="1" parent="VO8wrccKKKVSHIQP9nz9-1" source="1QHzfwnCVmD1By3LjXi_-42" target="1QHzfwnCVmD1By3LjXi_-61">
          <mxGeometry width="160" relative="1" as="geometry">
            <mxPoint x="330" y="585" as="sourcePoint" />
            <mxPoint x="160" y="595" as="targetPoint" />
            <Array as="points">
              <mxPoint x="370" y="595" />
            </Array>
          </mxGeometry>
        </mxCell>
        <mxCell id="1QHzfwnCVmD1By3LjXi_-56" value="" style="rounded=1;whiteSpace=wrap;html=1;labelBackgroundColor=none;fontFamily=Times New Roman;fontSize=12;fillColor=none;" vertex="1" parent="VO8wrccKKKVSHIQP9nz9-1">
          <mxGeometry x="280.18" y="840" width="179.88" height="90" as="geometry" />
        </mxCell>
        <mxCell id="1QHzfwnCVmD1By3LjXi_-57" value="" style="endArrow=none;html=1;rounded=0;labelBackgroundColor=none;fontFamily=Times New Roman;fontSize=12;strokeWidth=1;fillColor=#;entryX=1;entryY=0.5;entryDx=0;entryDy=0;exitX=0;exitY=0.5;exitDx=0;exitDy=0;spacing=2;" edge="1" parent="VO8wrccKKKVSHIQP9nz9-1" source="1QHzfwnCVmD1By3LjXi_-56" target="1QHzfwnCVmD1By3LjXi_-56">
          <mxGeometry width="50" height="50" relative="1" as="geometry">
            <mxPoint x="320.18" y="910" as="sourcePoint" />
            <mxPoint x="370.18" y="860" as="targetPoint" />
          </mxGeometry>
        </mxCell>
        <mxCell id="1QHzfwnCVmD1By3LjXi_-58" value="Тест завершился" style="text;html=1;strokeColor=none;fillColor=none;align=center;verticalAlign=middle;whiteSpace=wrap;rounded=0;labelBackgroundColor=none;fontFamily=Times New Roman;fontSize=12;" vertex="1" parent="VO8wrccKKKVSHIQP9nz9-1">
          <mxGeometry x="301.31" y="850" width="137.62" height="20" as="geometry" />
        </mxCell>
        <mxCell id="1QHzfwnCVmD1By3LjXi_-59" value="do / Изменить счёт пользователя&lt;br&gt;exit / Выход из экрана теста" style="text;html=1;strokeColor=none;fillColor=none;align=center;verticalAlign=middle;whiteSpace=wrap;rounded=0;labelBackgroundColor=none;fontFamily=Times New Roman;fontSize=12;" vertex="1" parent="VO8wrccKKKVSHIQP9nz9-1">
          <mxGeometry x="280.18" y="890" width="174.75" height="40" as="geometry" />
        </mxCell>
        <mxCell id="1QHzfwnCVmD1By3LjXi_-61" value="" style="rhombus;whiteSpace=wrap;html=1;rounded=0;labelBackgroundColor=none;fontFamily=Times New Roman;fontSize=12;fillColor=none;" vertex="1" parent="VO8wrccKKKVSHIQP9nz9-1">
          <mxGeometry x="340.12" y="620" width="60" height="40" as="geometry" />
        </mxCell>
        <mxCell id="1QHzfwnCVmD1By3LjXi_-62" value="" style="rounded=1;whiteSpace=wrap;html=1;labelBackgroundColor=none;fontFamily=Times New Roman;fontSize=12;fillColor=none;" vertex="1" parent="VO8wrccKKKVSHIQP9nz9-1">
          <mxGeometry x="221.31" y="690" width="120" height="40" as="geometry" />
        </mxCell>
        <mxCell id="1QHzfwnCVmD1By3LjXi_-63" value="Время выполнения теста вышло" style="text;html=1;strokeColor=none;fillColor=none;align=center;verticalAlign=middle;whiteSpace=wrap;rounded=0;labelBackgroundColor=none;fontFamily=Times New Roman;fontSize=12;" vertex="1" parent="VO8wrccKKKVSHIQP9nz9-1">
          <mxGeometry x="232.5" y="690" width="102.62" height="30" as="geometry" />
        </mxCell>
        <mxCell id="1QHzfwnCVmD1By3LjXi_-64" value="" style="rounded=1;whiteSpace=wrap;html=1;labelBackgroundColor=none;fontFamily=Times New Roman;fontSize=12;fillColor=none;" vertex="1" parent="VO8wrccKKKVSHIQP9nz9-1">
          <mxGeometry x="415.12" y="690" width="120" height="40" as="geometry" />
        </mxCell>
        <mxCell id="1QHzfwnCVmD1By3LjXi_-65" value="Нажата кнопка завершения теста" style="text;html=1;strokeColor=none;fillColor=none;align=center;verticalAlign=middle;whiteSpace=wrap;rounded=0;labelBackgroundColor=none;fontFamily=Times New Roman;fontSize=12;" vertex="1" parent="VO8wrccKKKVSHIQP9nz9-1">
          <mxGeometry x="423.81" y="690" width="102.62" height="30" as="geometry" />
        </mxCell>
        <mxCell id="1QHzfwnCVmD1By3LjXi_-66" value="" style="endArrow=open;endFill=1;endSize=12;html=1;rounded=0;labelBackgroundColor=none;fontFamily=Times New Roman;fontSize=12;strokeWidth=1;fillColor=#;entryX=0.459;entryY=0.004;entryDx=0;entryDy=0;entryPerimeter=0;" edge="1" parent="VO8wrccKKKVSHIQP9nz9-1" target="1QHzfwnCVmD1By3LjXi_-63">
          <mxGeometry width="160" relative="1" as="geometry">
            <mxPoint x="340" y="640" as="sourcePoint" />
            <mxPoint x="291.19" y="690" as="targetPoint" />
            <Array as="points">
              <mxPoint x="280" y="640" />
            </Array>
          </mxGeometry>
        </mxCell>
        <mxCell id="1QHzfwnCVmD1By3LjXi_-67" value="" style="endArrow=open;endFill=1;endSize=12;html=1;rounded=0;labelBackgroundColor=none;fontFamily=Times New Roman;fontSize=12;strokeWidth=1;fillColor=#;exitX=1;exitY=0.5;exitDx=0;exitDy=0;entryX=0.548;entryY=0;entryDx=0;entryDy=0;entryPerimeter=0;" edge="1" parent="VO8wrccKKKVSHIQP9nz9-1" source="1QHzfwnCVmD1By3LjXi_-61" target="1QHzfwnCVmD1By3LjXi_-65">
          <mxGeometry width="160" relative="1" as="geometry">
            <mxPoint x="430" y="640" as="sourcePoint" />
            <mxPoint x="513.1300000000001" y="690" as="targetPoint" />
            <Array as="points">
              <mxPoint x="480" y="640" />
            </Array>
          </mxGeometry>
        </mxCell>
        <mxCell id="1QHzfwnCVmD1By3LjXi_-68" value="" style="endArrow=open;endFill=1;endSize=12;html=1;rounded=0;labelBackgroundColor=none;fontFamily=Times New Roman;fontSize=12;strokeWidth=1;fillColor=#;exitX=0.5;exitY=1;exitDx=0;exitDy=0;entryX=0.5;entryY=0;entryDx=0;entryDy=0;" edge="1" parent="VO8wrccKKKVSHIQP9nz9-1" source="1QHzfwnCVmD1By3LjXi_-64" target="1QHzfwnCVmD1By3LjXi_-56">
          <mxGeometry width="160" relative="1" as="geometry">
            <mxPoint x="160" y="760" as="sourcePoint" />
            <mxPoint x="160" y="830" as="targetPoint" />
            <Array as="points">
              <mxPoint x="475" y="800" />
              <mxPoint x="370" y="800" />
            </Array>
          </mxGeometry>
        </mxCell>
        <mxCell id="1QHzfwnCVmD1By3LjXi_-69" value="" style="endArrow=none;endFill=0;endSize=12;html=1;rounded=0;labelBackgroundColor=none;fontFamily=Times New Roman;fontSize=12;strokeWidth=1;fillColor=#;exitX=0.5;exitY=1;exitDx=0;exitDy=0;" edge="1" parent="VO8wrccKKKVSHIQP9nz9-1" source="1QHzfwnCVmD1By3LjXi_-62">
          <mxGeometry width="160" relative="1" as="geometry">
            <mxPoint x="360.1199999999999" y="750" as="sourcePoint" />
            <mxPoint x="400" y="800" as="targetPoint" />
            <Array as="points">
              <mxPoint x="281" y="800" />
            </Array>
          </mxGeometry>
        </mxCell>
      </root>
    </mxGraphModel>
  </diagram>
</mxfile>
